<svg width="32" height="32" viewBox="0 0 32 32" fill="none" xmlns="http://www.w3.org/2000/svg">
<path fill-rule="evenodd" clip-rule="evenodd" d="M16 9.24999C15.5449 9.24999 15.1759 9.61894 15.1759 10.0741V15.1759H10.0741C9.61897 15.1759 9.25002 15.5449 9.25002 16C9.25002 16.4551 9.61897 16.8241 10.0741 16.8241H15.1759V21.9259C15.1759 22.381 15.5449 22.75 16 22.75C16.4551 22.75 16.8241 22.381 16.8241 21.9259V16.8241H21.926C22.3811 16.8241 22.75 16.4551 22.75 16C22.75 15.5449 22.3811 15.1759 21.926 15.1759H16.8241V10.0741C16.8241 9.61894 16.4551 9.24999 16 9.24999Z" fill="white"/>
</svg>
