<svg xmlns="http://www.w3.org/2000/svg" xml:space="preserve" width="2000" height="140" data-id="lg_aStRk0FBAKkAuoi8nB" data-version="1" viewBox="0 0 2000 140"><g data-padding="20"><g transform="translate(10 2.5)scale(.96429)"><rect width="311.269" height="155.799" x="673.995" y="-78.066" fill="#ad79e1" paint-order="stroke" rx="19" ry="19" transform="matrix(.9 0 0 .9 140.16 70.15)"/><rect width="311.269" height="155.799" x="673.995" y="-78.066" fill="#0099f2" paint-order="stroke" rx="19" ry="19" transform="matrix(.9 0 0 .9 419.84 70.15)"/><rect width="334.199" height="111.87" x="579.566" y="-56.085" fill="none" rx="0" ry="0" transform="translate(279.18 70.68)"/><path fill="#fff" d="M868.286 34.01v-2.18h51.48l.99 19.61h-1.79q-4.15-10-8.71-13.72-4.55-3.71-13.36-3.71h-3.47V64.6h3.37q4.65 0 7.82-3.51 3.17-3.52 4.45-9.46h1.49v29.31h-1.68q-1.79-7.43-4.8-10.6-3.02-3.16-8.27-3.16h-2.38v31.78h3.76q9.11 0 15.5-5.45 6.38-5.44 8.76-13.96h1.98l-.79 21.58h-54.35v-2.17h5.84V34.01Zm62.65 68.11h-1.18V84.4h1.18q2.58 8.62 6.93 12.08 4.36 3.47 10.89 3.47 10.1 0 10.1-6.44 0-2.77-2.47-4.16-3.86-2.18-9.9-3.36-6.74-1.79-11.29-4.76-5.44-3.56-5.44-11.28t4.75-12.33q4.75-4.6 12.67-4.6 4.85 0 10 2.28 1.88.79 2.87.79t1.68-.69q.7-.7 1.69-2.58h1.08v15.15h-1.18q-5.05-12.87-15.65-12.87-4.65 0-6.93 1.63-2.27 1.64-2.27 4.11 0 1.49.69 2.33t1.09 1.23q.4.4 1.29.85.89.44 1.48.69.6.25 1.83.64 1.24.4 1.83.5 6.74 1.68 9.71 2.92t5.64 3.02q5.44 3.76 5.44 12.13 0 8.36-4.95 12.67-4.95 4.3-13.56 4.3-6.14 0-11.88-2.87-1.19-.79-1.88-.79-2.18 0-4.26 3.66m39.51-73.45v-1.79h23.86v36.24q1.59-4.56 4.85-7.33 3.27-2.77 9.9-2.77 15.35 0 15.35 16.53v29.8h5.54v1.78h-28.01v-1.78h4.06V67.18q0-5.94-.8-7.68-.79-1.73-2.87-1.73-3.17 0-5.59 4.16-2.43 4.16-2.43 10.1v27.32h4.26v1.78h-28.12v-1.78h5.45V28.67Zm84.74 49.2h2.87v-7.62q0-9.41-1.04-12.63-1.04-3.21-4.01-3.21-1.78 0-3.22.94-1.43.94-1.43 2.57t.59 3.32h2.48q.79 2.08.79 5t-2.48 5.05q-2.47 2.12-6.23 2.12-8.52 0-8.52-8.21 0-12.18 20.69-12.18 11.78 0 16.29 4.01 4.5 4.01 4.5 14.7v20.1q0 5.15 2.87 5.15 3.37 0 3.96-10.2l1.49.1q-.4 8.71-3.27 11.98-2.87 3.26-9.4 3.26-11.88 0-13.66-7.32-1.29 3.76-3.87 5.54-2.57 1.78-7.52 1.78-14.65 0-14.65-11.98 0-7.02 5.59-9.65 5.6-2.62 17.18-2.62m-3.96 12.18q0 5.14.54 6.63.55 1.48 2.08 1.48 1.54 0 2.87-2.52 1.34-2.53 1.34-6.98v-9.21h-.69q-6.14 0-6.14 9.01Zm67.63-33.28q-3.67 0-6.44 4.75-2.77 4.76-2.77 11.29v26.53h7.03v1.78h-30.89v-1.78h5.44V55.78h-5.44V54h23.86v9.5q1.29-5.05 4.95-7.77t8.31-2.72q4.66 0 7.58 2.62 2.92 2.63 2.92 7.43t-2.18 7.37q-2.18 2.58-6.68 2.58-4.51 0-6.63-2.97-2.13-2.97-.55-8.22h3.56q2.48-5.05-2.07-5.05m41.48 45.35q-12.77 0-19.16-6.58t-6.39-18.31q0-11.74 7.18-17.97 7.18-6.24 18.27-6.24 22.47 0 21.58 22.57h-27.92v3.86q0 9.7 2.48 14.65 2.47 4.95 8.61 4.95 11.48 0 15.05-12.27l1.78.3q-1.88 7.12-6.78 11.08t-14.7 3.96m-6.34-33.36v4.85h10.2v-4.85q0-8.02-.94-10.94t-3.76-2.92q-2.83 0-4.16 3.12-1.34 3.12-1.34 10.74"/></g><path fill="transparent" stroke="transparent" d="M720 0h560v140H720z"/></g></svg>